<svg width="18" height="18" viewBox="0 0 18 18" fill="none" xmlns="http://www.w3.org/2000/svg">
<path fill-rule="evenodd" clip-rule="evenodd" d="M15.9874 4.10749C15.9383 4.00005 15.6986 3.55708 14.5324 3.024C13.2197 2.42387 11.2656 2 9 2C6.73441 2 4.78033 2.42387 3.46756 3.024C2.30145 3.55708 2.06172 4.00005 2.01259 4.10749C2.06446 4.21134 2.30835 4.6001 3.41373 5.06663C4.73109 5.62264 6.70059 6 9 6C11.2994 6 13.2689 5.62264 14.5863 5.06663C15.6916 4.6001 15.9355 4.21134 15.9874 4.10749ZM9 8C11.8273 8 14.35 7.47799 16 6.60965V8.97937C16 8.97937 15.9985 8.98177 15.9965 8.98672C15.9719 9.04818 15.7958 9.48732 14.5846 10.023C13.2845 10.598 11.3257 11 9 11C6.67429 11 4.71551 10.598 3.41542 10.023C2.20421 9.48732 2.0283 9.0479 2.00368 8.98641C2.0017 8.98146 2.00021 8.97905 2.00021 8.97905L2.00004 6.60967C3.65 7.478 6.17276 8 9 8ZM18 9V4.11429V4H17.9966C17.8644 1.78051 13.8871 0 9 0C4.11304 0 0.135816 1.78058 0.00340522 4H0V4.11429V9V14C0 16.2723 3.95053 18 9 18C14.0495 18 18 16.2723 18 14V9ZM16 11.5545C14.3631 12.4467 11.8575 13 9 13C6.14248 13 3.6369 12.4467 2.00004 11.5545L2.00021 13.9791C2.00021 13.9791 2.0017 13.9815 2.00368 13.9864C2.0283 14.0479 2.20421 14.4873 3.41542 15.023C4.71551 15.598 6.67429 16 9 16C11.3257 16 13.2845 15.598 14.5846 15.023C15.7958 14.4873 15.9719 14.0482 15.9965 13.9867C15.9985 13.9818 16 13.9794 16 13.9794V11.5545Z" fill="#6F767E"/>
</svg>
