<svg width="22" height="21" viewBox="0 0 22 21" fill="none" xmlns="http://www.w3.org/2000/svg">
<path fill-rule="evenodd" clip-rule="evenodd" d="M21.1598 5.1842L18.2327 1.21844C17.6671 0.452194 16.7713 0 15.8189 0H6.18107C5.22871 0 4.33291 0.452195 3.76735 1.21844L0.840245 5.1842C0.0465158 6.25957 0.0599329 7.73033 0.873149 8.79105L8.61919 18.8946C9.82 20.4609 12.18 20.4609 13.3808 18.8946L21.1269 8.79105C21.9401 7.73033 21.9535 6.25957 21.1598 5.1842ZM2.72389 6L5.3765 2.40615C5.56502 2.15073 5.86362 2 6.18107 2H15.8189C16.1364 2 16.435 2.15073 16.6235 2.40615L19.2761 6H2.72389ZM2.78682 8L10.2064 17.6777C10.6067 18.1998 11.3933 18.1998 11.7936 17.6777L19.2132 8H2.78682Z" fill="#6F767E"/>
</svg>
